# xmcd
#
# Track frame offsets:
#	150
#	16215
#	32910
#	50422
#	67140
#	85027
#	99652
#	112027
#	128872
#	152467
#	167747
#	183217
#	199217
#
# Disc length: 2851 seconds
#
# Revision: 1
# Processed by: cddbd v1.5.2PL0 Copyright (c) Steve Scherf et al.
# Submitted via: EasyCDDAExtractor 10.0.1.1
#
DISCID=aa0b210d
DTITLE=Renee Geyer - It's A Man's Man's World
DYEAR=1983
DGENRE=Blues
TTITLE0=It's A Man's Man's World
TTITLE1=They Tell Me Of An Uncloudy Day
TTITLE2=Take Me Where You Took Me Last Night
TTITLE3=Since I Fell For You
TTITLE4=What Do I Do On Sunday Morning
TTITLE5=Love The Way You Love
TTITLE6=Scarlet Ribbons
TTITLE7=Do Your Thing
TTITLE8=And I Love Him
TTITLE9=It's Been A Long Time
TTITLE10=Mama's Little Girl
TTITLE11=Once In A Lifetime Thing
TTITLE12=Feel Good
EXTD=
EXTT0=
EXTT1=
EXTT2=
EXTT3=
EXTT4=
EXTT5=
EXTT6=
EXTT7=
EXTT8=
EXTT9=
EXTT10=
EXTT11=
EXTT12=
PLAYORDER=
